<svg width="22" height="26" viewBox="0 0 22 26" fill="none" xmlns="http://www.w3.org/2000/svg">
<path d="M16 11C16 9.4087 15.3679 7.88258 14.2426 6.75736C13.1174 5.63214 11.5913 5 10 5C8.4087 5 6.88258 5.63214 5.75736 6.75736C4.63214 7.88258 4 9.4087 4 11C4 18 1 20 1 20H19C19 20 16 18 16 11Z" stroke="#56606D" stroke-width="2" stroke-linecap="round" stroke-linejoin="round"/>
<path d="M11.73 24C11.5542 24.3031 11.3019 24.5547 10.9982 24.7295C10.6946 24.9044 10.3504 24.9965 10 24.9965C9.64964 24.9965 9.30541 24.9044 9.00179 24.7295C8.69818 24.5547 8.44583 24.3031 8.27002 24" stroke="#56606D" stroke-width="2" stroke-linecap="round" stroke-linejoin="round"/>
<circle cx="15" cy="7" r="6.5" fill="#4C6FFF" stroke="white"/>
<path d="M14.9787 10.2C14.4787 10.2 13.962 10.1 13.4287 9.9L13.4787 9.7C13.892 9.76667 14.3253 9.8 14.7787 9.8C15.3653 9.8 15.802 9.57667 16.0887 9.13C16.382 8.67667 16.5287 8.05 16.5287 7.25C16.3287 7.39 16.1087 7.5 15.8687 7.58C15.6353 7.66 15.3553 7.7 15.0287 7.7C14.3487 7.7 13.8453 7.50333 13.5187 7.11C13.192 6.71 13.0287 6.15667 13.0287 5.45C13.0287 5.05 13.1087 4.68 13.2687 4.34C13.4287 4 13.672 3.72667 13.9987 3.52C14.3253 3.30667 14.7187 3.2 15.1787 3.2C15.9653 3.2 16.5453 3.49333 16.9187 4.08C17.292 4.66 17.4787 5.53333 17.4787 6.7C17.4787 7.86667 17.272 8.74333 16.8587 9.33C16.452 9.91 15.8253 10.2 14.9787 10.2ZM15.3287 7.3C15.5687 7.3 15.782 7.26 15.9687 7.18C16.1553 7.09333 16.342 6.96667 16.5287 6.8C16.5287 5.7 16.4087 4.89333 16.1687 4.38C15.9287 3.86 15.5987 3.6 15.1787 3.6C14.812 3.6 14.5187 3.78333 14.2987 4.15C14.0853 4.51667 13.9787 4.95 13.9787 5.45C13.9787 6.68333 14.4287 7.3 15.3287 7.3Z" fill="white"/>
</svg>
