<svg width="43" height="44" viewBox="0 0 43 44" fill="none" xmlns="http://www.w3.org/2000/svg">
<path d="M30.7254 27.6648H28.8033L28.1221 27.0078C30.5065 24.2342 31.942 20.6333 31.942 16.7161C31.942 7.9815 24.8618 0.901367 16.1272 0.901367C7.39263 0.901367 0.3125 7.9815 0.3125 16.7161C0.3125 25.4507 7.39263 32.5308 16.1272 32.5308C20.0444 32.5308 23.6453 31.0953 26.419 28.711L27.0759 29.3922V31.3143L39.2411 43.4552L42.8663 39.8299L30.7254 27.6648ZM16.1272 27.6648C10.069 27.6648 5.17857 22.7744 5.17857 16.7161C5.17857 10.6578 10.069 5.76744 16.1272 5.76744C22.1855 5.76744 27.0759 10.6578 27.0759 16.7161C27.0759 22.7744 22.1855 27.6648 16.1272 27.6648Z" fill="#C9CED6"/>
</svg>
