<svg width="132" height="42" viewBox="0 0 132 42" fill="none" xmlns="http://www.w3.org/2000/svg">
<path d="M49.4921 14.768C49.4921 15.16 49.4454 15.5893 49.3521 16.056H38.5161C38.5721 17.232 38.8708 18.0813 39.4121 18.604C39.9534 19.108 40.6441 19.36 41.4841 19.36C42.1934 19.36 42.7814 19.1826 43.2481 18.828C43.7148 18.4733 44.0228 18.016 44.1721 17.456H49.2401C49.0348 18.5573 48.5868 19.5466 47.8961 20.424C47.2054 21.2826 46.3281 21.964 45.2641 22.468C44.2001 22.9533 43.0148 23.196 41.7081 23.196C40.1774 23.196 38.8148 22.8786 37.6201 22.244C36.4441 21.5906 35.5201 20.6573 34.8481 19.444C34.1761 18.2306 33.8401 16.812 33.8401 15.188C33.8401 13.5453 34.1668 12.1266 34.8201 10.932C35.4921 9.71863 36.4254 8.79463 37.6201 8.15996C38.8148 7.50663 40.1774 7.17996 41.7081 7.17996C43.2574 7.17996 44.6201 7.4973 45.7961 8.13196C46.9721 8.76663 47.8774 9.66263 48.5121 10.82C49.1654 11.9586 49.4921 13.2746 49.4921 14.768ZM44.6481 14.04C44.6668 13.0133 44.3868 12.248 43.8081 11.744C43.2481 11.2213 42.5481 10.96 41.7081 10.96C40.8308 10.96 40.1028 11.2213 39.5241 11.744C38.9454 12.2666 38.6188 13.032 38.5441 14.04H44.6481Z" fill="white"/>
<path d="M62.46 7.20796C64.252 7.20796 65.6707 7.8053 66.716 8.99996C67.78 10.1946 68.312 11.8373 68.312 13.928V23H63.524V14.488C63.524 13.4426 63.244 12.6306 62.684 12.052C62.1427 11.4546 61.4147 11.156 60.5 11.156C59.5294 11.156 58.7547 11.464 58.176 12.08C57.616 12.696 57.336 13.5733 57.336 14.712V23H52.548V7.37596H57.336V10.232C57.784 9.29863 58.4467 8.56129 59.324 8.01996C60.22 7.47863 61.2654 7.20796 62.46 7.20796Z" fill="white"/>
<path d="M71.5819 2.97996C71.5819 2.25196 71.8432 1.65463 72.3659 1.18796C72.8886 0.702628 73.5792 0.459961 74.4379 0.459961C75.2966 0.459961 75.9872 0.702628 76.5099 1.18796C77.0326 1.65463 77.2939 2.25196 77.2939 2.97996C77.2939 3.6893 77.0326 4.28663 76.5099 4.77196C75.9872 5.23863 75.2966 5.47196 74.4379 5.47196C73.5792 5.47196 72.8886 5.23863 72.3659 4.77196C71.8432 4.28663 71.5819 3.6893 71.5819 2.97996ZM76.8179 7.37596V23H72.0299V7.37596H76.8179Z" fill="white"/>
<path d="M87.9916 7.17996C89.541 7.17996 90.9223 7.50663 92.1357 8.15996C93.3676 8.79463 94.329 9.71863 95.0197 10.932C95.729 12.1453 96.0837 13.564 96.0837 15.188C96.0837 16.812 95.729 18.2306 95.0197 19.444C94.329 20.6573 93.3676 21.5906 92.1357 22.244C90.9223 22.8786 89.541 23.196 87.9916 23.196C86.4423 23.196 85.0517 22.8786 83.8197 22.244C82.5877 21.5906 81.617 20.6573 80.9076 19.444C80.217 18.2306 79.8717 16.812 79.8717 15.188C79.8717 13.564 80.217 12.1453 80.9076 10.932C81.617 9.71863 82.5877 8.79463 83.8197 8.15996C85.0517 7.50663 86.4423 7.17996 87.9916 7.17996ZM87.9916 11.324C87.077 11.324 86.3023 11.66 85.6677 12.332C85.0517 12.9853 84.7437 13.9373 84.7437 15.188C84.7437 16.4386 85.0517 17.3906 85.6677 18.044C86.3023 18.6973 87.077 19.024 87.9916 19.024C88.9063 19.024 89.6716 18.6973 90.2877 18.044C90.9037 17.3906 91.2117 16.4386 91.2117 15.188C91.2117 13.9373 90.9037 12.9853 90.2877 12.332C89.6716 11.66 88.9063 11.324 87.9916 11.324Z" fill="white"/>
<path d="M114.666 7.37596V23H109.85V20.172C109.402 21.0866 108.73 21.8146 107.834 22.356C106.957 22.8973 105.93 23.168 104.754 23.168C102.962 23.168 101.534 22.5706 100.47 21.376C99.4251 20.1813 98.9025 18.5386 98.9025 16.448V7.37596H103.662V15.86C103.662 16.924 103.933 17.7546 104.474 18.352C105.034 18.9306 105.781 19.22 106.714 19.22C107.685 19.22 108.45 18.912 109.01 18.296C109.57 17.68 109.85 16.8026 109.85 15.664V7.37596H114.666Z" fill="white"/>
<path d="M124.21 7.17996C126.189 7.17996 127.766 7.67463 128.942 8.66396C130.137 9.6533 130.884 10.96 131.182 12.584H126.702C126.572 11.9493 126.273 11.4546 125.806 11.1C125.358 10.7266 124.789 10.54 124.098 10.54C123.557 10.54 123.146 10.6613 122.866 10.904C122.586 11.128 122.446 11.4546 122.446 11.884C122.446 12.3693 122.698 12.7333 123.202 12.976C123.725 13.2186 124.537 13.4613 125.638 13.704C126.833 13.984 127.813 14.2733 128.578 14.572C129.344 14.852 130.006 15.3186 130.566 15.972C131.126 16.6253 131.406 17.5026 131.406 18.604C131.406 19.5 131.164 20.2933 130.678 20.984C130.193 21.6746 129.493 22.216 128.578 22.608C127.664 23 126.581 23.196 125.33 23.196C123.221 23.196 121.532 22.7293 120.262 21.796C118.993 20.8626 118.218 19.528 117.938 17.792H122.558C122.633 18.464 122.913 18.9773 123.398 19.332C123.902 19.6866 124.546 19.864 125.33 19.864C125.872 19.864 126.282 19.7426 126.562 19.5C126.842 19.2386 126.982 18.9026 126.982 18.492C126.982 17.9506 126.721 17.568 126.198 17.344C125.694 17.1013 124.864 16.8493 123.706 16.588C122.549 16.3453 121.597 16.084 120.85 15.804C120.104 15.524 119.46 15.076 118.918 14.46C118.377 13.8253 118.106 12.9666 118.106 11.884C118.106 10.484 118.638 9.35463 119.702 8.49596C120.766 7.61863 122.269 7.17996 124.21 7.17996Z" fill="white"/>
<g clip-path="url(#clip0_215_766)">
<path d="M14.0248 0C18.3027 0 22.3593 1.9916 25.0423 5.49219C23.501 4.66678 21.8257 4.1546 20.1178 3.96584C17.5459 3.68221 14.8897 4.13623 12.4973 5.36669C9.17067 7.07669 6.09196 10.3855 6.09196 14.4278C6.09196 18.9344 9.64379 22.5871 14.0248 22.5871C17.3108 22.5871 20.1306 20.5322 21.3338 17.603C22.5885 14.5493 21.915 10.9987 19.6367 8.65507C18.997 7.99699 18.258 7.46236 17.4576 7.06853C23.2173 6.43289 28.8728 10.012 27.8879 16.6317C27.509 19.1752 26.4845 21.4994 24.9907 23.4237L24.8578 23.592L24.83 23.6277L24.8043 23.6584L24.6892 23.7991L24.6842 23.8053C23.8759 24.7756 22.9455 25.6357 21.916 26.358C19.719 27.8956 17.1531 28.7496 14.5297 28.8485L14.5019 28.8475C14.3442 28.8536 14.1845 28.8567 14.0258 28.8567C12.9367 28.8567 11.8774 28.7281 10.8588 28.4874L10.8538 28.4853L10.5682 28.4139L10.4254 28.3751L10.2627 28.3292L10.0971 28.2813L9.9582 28.2384L9.78761 28.1833L9.65966 28.1415L9.47021 28.0772L9.40773 28.0548L9.1677 27.967L8.88204 27.8548L8.59738 27.7354L8.33355 27.6181L8.31173 27.6068L8.07666 27.4967L8.01715 27.4681L7.83068 27.3742C3.19178 25.0204 0 20.1067 0 14.4278C0 6.45942 6.27942 0 14.0248 0Z" fill="white"/>
<path d="M14.4513 42C19.6635 42 23.8878 37.6557 23.8878 32.2941H17.8038C17.8038 34.1989 16.3041 35.7426 14.4513 35.7426C12.5995 35.7426 11.0988 34.1989 11.0988 32.2941H9.37897H5.01581C5.01581 37.6546 9.24011 42 14.4513 42Z" fill="white"/>
</g>
<defs>
<clipPath id="clip0_215_766">
<rect width="28" height="42" fill="white"/>
</clipPath>
</defs>
</svg>
